<svg 
 xmlns="http://www.w3.org/2000/svg"
 xmlns:xlink="http://www.w3.org/1999/xlink"
 width="6px" height="10px">
<path fill-rule="evenodd"  fill="rgb(192, 48, 28)"
 d="M0.0,9.168 C0.0,9.258 0.41,9.338 0.102,9.398 L0.618,9.899 C0.680,9.959 0.773,9.999 0.855,9.999 C0.938,9.999 1.30,9.959 1.92,9.899 L5.896,5.230 C5.958,5.170 5.999,5.79 5.999,5.0 C5.999,4.919 5.958,4.829 5.896,4.769 L1.92,0.100 C1.30,0.39 0.938,0.0 0.855,0.0 C0.773,0.0 0.680,0.39 0.618,0.100 L0.102,0.601 C0.41,0.661 0.0,0.751 0.0,0.831 C0.0,0.911 0.41,1.1 0.102,1.61 L4.154,5.0 L0.102,8.937 C0.41,8.997 0.0,9.87 0.0,9.168 Z"/>
</svg>