<svg 
 xmlns="http://www.w3.org/2000/svg"
 xmlns:xlink="http://www.w3.org/1999/xlink"
 width="8px" height="14px">
<path fill-rule="evenodd"  fill="rgb(221, 221, 221)"
 d="M0.0,12.835 C0.0,12.961 0.54,13.73 0.137,13.158 L0.824,13.859 C0.907,13.943 1.30,13.999 1.140,13.999 C1.250,13.999 1.374,13.943 1.456,13.859 L7.862,7.322 C7.944,7.237 7.999,7.111 7.999,6.999 C7.999,6.887 7.944,6.761 7.862,6.676 L1.456,0.139 C1.374,0.55 1.250,0.0 1.140,0.0 C1.30,0.0 0.907,0.55 0.824,0.139 L0.137,0.841 C0.54,0.925 0.0,1.51 0.0,1.163 C0.0,1.276 0.54,1.402 0.137,1.486 L5.539,6.999 L0.137,12.512 C0.54,12.596 0.0,12.723 0.0,12.835 Z"/>
</svg>