<svg 
 xmlns="http://www.w3.org/2000/svg"
 xmlns:xlink="http://www.w3.org/1999/xlink"
 width="8px" height="14px">
<path fill-rule="evenodd"  fill="rgb(221, 221, 221)"
 d="M7.999,1.163 C7.999,1.37 7.944,0.925 7.862,0.841 L7.175,0.139 C7.92,0.55 6.969,0.0 6.859,0.0 C6.749,0.0 6.625,0.55 6.542,0.139 L0.137,6.676 C0.54,6.761 0.0,6.887 0.0,6.999 C0.0,7.111 0.54,7.237 0.137,7.322 L6.542,13.859 C6.625,13.943 6.749,13.999 6.859,13.999 C6.969,13.999 7.92,13.943 7.175,13.859 L7.862,13.158 C7.944,13.73 7.999,12.947 7.999,12.835 C7.999,12.723 7.944,12.596 7.862,12.512 L2.460,6.999 L7.862,1.486 C7.944,1.402 7.999,1.276 7.999,1.163 Z"/>
</svg>