<svg 
 xmlns="http://www.w3.org/2000/svg"
 xmlns:xlink="http://www.w3.org/1999/xlink"
 width="15px" height="11px">
<path fill-rule="evenodd"  fill="rgb(85, 85, 85)"
 d="M13.928,9.749 C13.928,9.882 13.803,9.999 13.660,9.999 L1.339,9.999 C1.196,9.999 1.71,9.882 1.71,9.749 L1.71,3.749 C1.247,3.937 1.439,4.108 1.648,4.265 C2.845,5.124 4.51,5.999 5.214,6.906 C5.842,7.397 6.621,7.999 7.491,7.999 L7.499,7.999 L7.508,7.999 C8.378,7.999 9.157,7.397 9.785,6.906 C10.948,5.999 12.154,5.124 13.350,4.265 C13.560,4.108 13.752,3.937 13.928,3.749 L13.928,9.749 ZM13.928,1.538 C13.928,2.202 13.242,3.69 12.698,3.468 C11.576,4.288 10.454,5.116 9.341,5.944 C8.897,6.281 8.94,6.999 7.508,6.999 L7.499,6.999 L7.491,6.999 C6.905,6.999 6.102,6.281 5.658,5.944 C4.545,5.116 3.423,4.288 2.301,3.468 C1.548,2.913 1.71,2.139 1.71,1.249 C1.71,1.116 1.196,0.999 1.339,0.999 L13.660,0.999 C13.978,0.999 13.928,1.343 13.928,1.538 ZM14.999,1.249 C14.999,0.561 14.397,0.0 13.660,0.0 L1.339,0.0 C0.602,0.0 0.0,0.561 0.0,1.249 L0.0,9.749 C0.0,10.437 0.602,10.999 1.339,10.999 L13.660,10.999 C14.397,10.999 14.999,10.437 14.999,9.749 L14.999,1.249 Z"/>
</svg>