<svg 
 xmlns="http://www.w3.org/2000/svg"
 xmlns:xlink="http://www.w3.org/1999/xlink"
 width="12px" height="17px">
<path fill-rule="evenodd"  fill="rgb(85, 85, 85)"
 d="M8.999,5.666 C8.999,7.226 7.652,8.499 5.999,8.499 C4.347,8.499 2.999,7.226 2.999,5.666 C2.999,4.105 4.347,2.832 5.999,2.832 C7.652,2.832 8.999,4.105 8.999,5.666 ZM11.999,5.666 C11.999,2.534 9.316,0.0 5.999,0.0 C2.683,0.0 0.0,2.534 0.0,5.666 C0.0,6.341 0.81,7.38 0.386,7.647 L4.664,16.213 C4.898,16.700 5.437,16.999 5.999,16.999 C6.562,16.999 7.101,16.700 7.347,16.213 L11.613,7.647 C11.917,7.38 11.999,6.341 11.999,5.666 Z"/>
</svg>