<svg 
 xmlns="http://www.w3.org/2000/svg"
 xmlns:xlink="http://www.w3.org/1999/xlink"
 width="12px" height="20px">
<path fill-rule="evenodd"  fill="rgb(85, 85, 85)"
 d="M7.249,17.999 C7.249,18.686 6.687,19.249 5.999,19.249 C5.312,19.249 4.749,18.686 4.749,17.999 C4.749,17.312 5.312,16.749 5.999,16.749 C6.687,16.749 7.249,17.312 7.249,17.999 ZM10.499,15.499 C10.499,15.765 10.265,15.999 9.999,15.999 L1.999,15.999 C1.734,15.999 1.499,15.765 1.499,15.499 L1.499,4.499 C1.499,4.234 1.734,3.999 1.999,3.999 L9.999,3.999 C10.265,3.999 10.499,4.234 10.499,4.499 L10.499,15.499 ZM7.499,2.249 C7.499,2.390 7.390,2.499 7.249,2.499 L4.749,2.499 C4.609,2.499 4.499,2.390 4.499,2.249 C4.499,2.109 4.609,1.999 4.749,1.999 L7.249,1.999 C7.390,1.999 7.499,2.109 7.499,2.249 ZM11.999,1.999 C11.999,0.905 11.93,0.0 9.999,0.0 L1.999,0.0 C0.906,0.0 0.0,0.905 0.0,1.999 L0.0,17.999 C0.0,19.93 0.906,19.999 1.999,19.999 L9.999,19.999 C11.93,19.999 11.999,19.93 11.999,17.999 L11.999,1.999 Z"/>
</svg>