<svg 
 xmlns="http://www.w3.org/2000/svg"
 xmlns:xlink="http://www.w3.org/1999/xlink"
 width="9px" height="16px">
<path fill-rule="evenodd"  fill="rgb(255, 255, 255)"
 d="M8.97,0.2 L6.79,0.0 C3.811,0.0 2.346,1.545 2.346,3.937 L2.346,5.752 L0.317,5.752 C0.142,5.752 0.0,5.898 0.0,6.78 L0.0,8.709 C0.0,8.889 0.142,9.35 0.317,9.35 L2.346,9.35 L2.346,15.673 C2.346,15.853 2.488,15.999 2.663,15.999 L5.311,15.999 C5.486,15.999 5.628,15.853 5.628,15.673 L5.628,9.35 L8.1,9.35 C8.176,9.35 8.318,8.889 8.318,8.709 L8.319,6.78 C8.319,5.992 8.285,5.909 8.226,5.848 C8.166,5.786 8.86,5.752 8.1,5.752 L5.628,5.752 L5.628,4.213 C5.628,3.474 5.800,3.98 6.737,3.98 L8.96,3.97 C8.272,3.97 8.414,2.951 8.414,2.771 L8.414,0.329 C8.414,0.148 8.272,0.3 8.97,0.2 Z"/>
</svg>