<svg xmlns="http://www.w3.org/2000/svg" width="17" height="16">
    <path fill-rule="evenodd" fill="#FFF" d="M1.584 3.779c0 1.871.706 2.214 1.323 2.76.718.447 1.552.991 1.985.991.105 0 .928-.04.249-.08 0 0 .159.459.526 1.314h-.03c-1.15 0-4.901.232-4.901 3.209 0 3.227 3.445 3.183 4.136 3.183l.086-.001c.007 0 .192.002 1.032.002-.448 0 .699-.054 1.763-.554 1.381-.647 2.082-1.773 2.082-3.346 0-1.52-1.067-2.424-1.847-3.086-.475-.402-.886-.75-.886-.341 0-1.093.3-1.351.679-1.68.615-.53 1.194-1.285 1.194-2.713 0-1.255-.168-2.098-1.207-2.632.108-.054.491-.093.681-.118C9.11.613 9.835.528 9.835.85V0H5.733c-.042 0-4.149.147-4.149 3.779zm6.622 7.762c.079 1.211-.995 2.105-2.606 2.218-1.637.116-2.984-.596-3.062-1.805-.038-.581.227-1.152.745-1.605.526-.46 1.247-.743 2.032-.799.093-.006.185-.01.277-.01 1.514 0 2.54.86 2.614 2.001zM7.135 2.95c.402 1.366-.205 2.795-1.173 3.95-.112-.51-.227-.36-.343-.36-.888 0-1.767-1.353-2.092-2.546-.182-.67-.168-1.256.041-1.82.205-.554.574-.929 1.037-1.055.112.771.227.611.344.611 1.251 0 1.76-.228 2.186 1.22zm7.335 2.976V3.342h-2.118v2.584H9.676v1.637h2.676v2.583h2.118V7.563h2.253V5.926H14.47z"/>
</svg>
