<svg 
 xmlns="http://www.w3.org/2000/svg"
 xmlns:xlink="http://www.w3.org/1999/xlink"
 width="14px" height="14px">
<path fill-rule="evenodd"  fill="rgb(255, 255, 255)"
 d="M3.180,4.548 L0.173,4.548 L0.173,13.999 L3.180,13.999 L3.180,4.548 ZM3.372,1.630 C3.363,0.705 2.725,0.0 1.695,0.0 C0.674,0.0 0.0,0.705 0.0,1.630 C0.0,2.536 0.647,3.261 1.658,3.261 L1.677,3.261 L1.677,3.261 C2.725,3.261 3.381,2.536 3.372,1.630 ZM13.999,8.582 C13.999,5.683 12.523,4.329 10.545,4.329 C8.923,4.329 8.212,5.273 7.820,5.921 L7.838,5.921 L7.838,4.548 L4.839,4.548 C4.839,4.548 4.876,5.435 4.839,13.999 L4.839,13.999 L7.838,13.999 L7.838,8.725 C7.838,8.439 7.865,8.162 7.938,7.953 C8.157,7.390 8.649,6.809 9.479,6.809 C10.563,6.809 11.1,7.676 11.1,8.945 L11.1,13.999 L13.999,13.999 L13.999,8.582 Z"/>
</svg>