<svg 
 xmlns="http://www.w3.org/2000/svg"
 xmlns:xlink="http://www.w3.org/1999/xlink"
 width="17px" height="14px">
<path fill-rule="evenodd"  fill="rgb(255, 255, 255)"
 d="M15.969,1.74 C15.334,1.440 14.632,1.705 13.885,1.849 C13.287,1.227 12.435,0.841 11.491,0.841 C9.680,0.841 8.211,2.270 8.211,4.30 C8.211,4.280 8.241,4.524 8.296,4.757 C5.571,4.624 3.154,3.354 1.537,1.424 C1.254,1.895 1.93,2.442 1.93,3.27 C1.93,4.134 1.673,5.110 2.552,5.682 C2.14,5.664 1.509,5.521 1.66,5.281 L1.66,5.321 C1.66,6.866 2.197,8.155 3.697,8.449 C3.422,8.522 3.132,8.561 2.833,8.561 C2.621,8.561 2.416,8.540 2.215,8.503 C2.633,9.770 3.843,10.692 5.278,10.719 C4.156,11.574 2.741,12.83 1.205,12.83 C0.940,12.83 0.679,12.69 0.423,12.40 C1.875,12.944 3.598,13.473 5.450,13.473 C11.483,13.473 14.781,8.613 14.781,4.397 L14.771,3.984 C15.414,3.536 15.971,2.975 16.410,2.336 C15.821,2.589 15.190,2.761 14.527,2.838 C15.204,2.443 15.723,1.817 15.969,1.74 Z"/>
</svg>