<svg xmlns="http://www.w3.org/2000/svg" width="15" height="11"><path fill-rule="evenodd" fill="#555" d="M13.928 9.749c0 .133-.125.25-.268.25H1.339c-.143 0 .371-.117.371-.25v-6c-.463.188-.271.359-.062.516 1.197.859 2.862 1.734 3.566 2.641.628.491 1.407 1.093 2.277 1.093h.017c.87 0 1.649-.602 2.277-1.093a112.724 112.724 0 013.565-2.641 4.38 4.38 0 00.578-.516v6zm0-8.211c0 .664-.686 2.152-1.23 1.93-1.122.82-2.244 1.648-3.357 2.476-.444.337-.401 1.055-1.833 1.055h-.017c-.586 0-1.389-.718-1.833-1.055a492.346 492.346 0 00-3.357-2.476c-.753-.555-.591-1.329-.591-2.219 0-.133-.514-.25-.371-.25H13.66c.318 0 .268.344.268.539zm1.071-.289C14.999.561 14.397 0 13.66 0H1.339C.602 0 0 .561 0 1.249v8.5c0 .688.602 1.25 1.339 1.25H13.66c.737 0 1.339-.562 1.339-1.25v-8.5z"/></svg>