<svg xmlns="http://www.w3.org/2000/svg" width="12" height="20"><path fill-rule="evenodd" fill="#555" d="M7.249 17.999c0 .687-.562 1.25-1.25 1.25-.687 0-1.25-.563-1.25-1.25s.563-1.25 1.25-1.25c.688 0 1.25.563 1.25 1.25zm3.25-2.5c0 .266-.234.5-.5.5h-8a.514.514 0 01-.5-.5v-11c0-.265.235-.5.5-.5h8c.266 0 .5.235.5.5v11zm-3-13.25c0 .141-.109.25-.25.25h-2.5a.247.247 0 01-.25-.25c0-.14.11-.25.25-.25h2.5c.141 0 .25.11.25.25zm4.5-.25c0-1.094-.069-1.999-2-1.999h-8A2.013 2.013 0 000 1.999v16c0 1.931.906 2 1.999 2h8c1.931 0 2-.069 2-2v-16z"/></svg>