<svg xmlns="http://www.w3.org/2000/svg" width="17" height="14"><path fill-rule="evenodd" fill="#FFF" d="M15.969 1.74c-.635-.3-1.337-.035-2.084.109A3.31 3.31 0 0011.491.841C9.68.841 8.211 2.27 8.211 4.3c0-.02.03.224.085.457a9.398 9.398 0 01-6.759-3.333c-.283.471.393 1.018.393 1.846 0 .864-.257 1.84.622 2.412-.412-.018-1.043-.161-.892-.401v.04c0 1.545.537 2.834 2.037 3.128a3.366 3.366 0 01-1.482.054c.418 1.267 1.628 2.189 3.063 2.216-1.122.855-2.537 2.111-4.073 2.111-.265 0-.526-.14-.782-.43 1.452.544 3.175 1.073 5.027 1.073 6.033 0 9.331-4.86 9.331-9.076l-.01-.413a6.499 6.499 0 001.639-1.648 6.728 6.728 0 01-1.883.502c.677-.395 1.196-1.021 1.442-1.098z"/></svg>